# xmcd
#
# Track frame offsets:
#	150
#	17302
#	35990
#	54150
#	74866
#	92743
#	109695
#	125063
#	142359
#	163258
#	191617
#
# Disc length: 4101 seconds
#
# Revision: 1
# Processed by: cddbd v1.5.2PL0 Copyright (c) Steve Scherf et al.
# Submitted via: audiograbber 1.83.01
#
DISCID=a710030b
DTITLE=Confused 5 - Out of ConFusion
DYEAR=2008
DGENRE=Blues
TTITLE0=Out of Confusion
TTITLE1=Back Again
TTITLE2=Because of You
TTITLE3=Deep Under
TTITLE4=Why Me
TTITLE5=Puppet of the World
TTITLE6=Don't Hide Your Blues
TTITLE7=New Orleans Minor
TTITLE8=No One
TTITLE9=To the Moon
TTITLE10=Data Track
EXTD=Financed by fans at www.sellaband.com
EXTT0=
EXTT1=
EXTT2=
EXTT3=
EXTT4=
EXTT5=
EXTT6=
EXTT7=
EXTT8=
EXTT9=
EXTT10=
PLAYORDER=
